<?xml version="1.0" encoding="iso-8859-1"?>
<!-- Generator: Adobe Illustrator 22.0.0, SVG Export Plug-In . SVG Version: 6.00 Build 0)  -->
<svg version="1.1" id="&#x421;&#x43B;&#x43E;&#x439;_1"
	 xmlns="http://www.w3.org/2000/svg" xmlns:xlink="http://www.w3.org/1999/xlink" x="0px" y="0px" viewBox="0 0 5669.292 2397.291"
	 style="enable-background:new 0 0 5669.292 2397.291;" xml:space="preserve">
<polygon points="897.122,596.393 588.411,596.393 588.411,867.96 897.122,867.96 897.122,2242.155 1168.689,2242.155 
	1168.689,867.96 1168.689,596.393 "/>
<polygon points="1404.289,172.268 1294.696,172.268 824.01,172.268 824.01,443.835 1294.696,443.835 1294.696,2242.155 
	1566.263,2242.155 1566.263,172.268 "/>
<path d="M3356.455,1513.613l-534.183-1.372c-187.045,0-338.675-151.63-338.675-338.674c0-187.045,151.63-338.675,338.675-338.675
	c178.791,0,325.207,138.546,337.783,314.133h294.924c-12.894-338.318-291.233-608.633-632.707-608.633
	c-349.693,0-633.174,283.482-633.174,633.174c0,349.692,283.481,633.174,633.174,633.174c10.647,0,21.232-0.265,31.75-0.784v0.784
	H5316v-293.127H3356.455z"/>
<path d="M3508.31,1936.233c0.608-0.547,1.223-1.087,1.829-1.636h-688.101v-0.241c-420.066-0.126-760.557-340.694-760.557-760.789
	c0-420.173,340.617-760.791,760.791-760.791c411.96,0,747.429,327.436,760.387,736.249h265.155
	c-13.036-555.218-467.19-1001.299-1025.542-1001.299c-566.556,0-1025.841,459.284-1025.841,1025.841
	c0,566.478,459.158,1025.712,1025.607,1025.838v0.002H5316v-263.174H3508.31z"/>
</svg>
