<?xml version="1.0" encoding="iso-8859-1"?>
<!-- Generator: Adobe Illustrator 22.0.0, SVG Export Plug-In . SVG Version: 6.00 Build 0)  -->
<svg version="1.1" id="&#x421;&#x43B;&#x43E;&#x439;_1"
	 xmlns="http://www.w3.org/2000/svg" xmlns:xlink="http://www.w3.org/1999/xlink" x="0px" y="0px" viewBox="0 0 4718.609 2096.718"
	 style="enable-background:new 0 0 4718.609 2096.718;" xml:space="preserve">
<polygon points="317.08,450.906 8.369,450.906 8.369,722.473 317.08,722.473 317.08,2096.667 588.647,2096.667 588.647,722.473 
	588.647,450.906 "/>
<polygon points="824.247,26.78 714.655,26.78 243.969,26.78 243.969,298.347 714.655,298.347 714.655,2096.667 986.222,2096.667 
	986.222,26.78 "/>
<path d="M2776.413,1368.126l-534.183-1.372c-187.045,0-338.675-151.63-338.675-338.674c0-187.045,151.63-338.675,338.675-338.675
	c178.791,0,325.207,138.546,337.783,314.133h294.924c-12.894-338.318-291.233-608.633-632.707-608.633
	c-349.693,0-633.174,283.482-633.174,633.174c0,349.692,283.481,633.174,633.174,633.174c10.647,0,21.232-0.265,31.75-0.784v0.784
	h2461.978v-293.127H2776.413z"/>
<path d="M2928.269,1790.745c0.608-0.547,1.223-1.087,1.829-1.636h-688.101v-0.241c-420.066-0.126-760.557-340.694-760.557-760.789
	c0-420.173,340.617-760.791,760.791-760.791c411.96,0,747.429,327.436,760.387,736.249h265.155
	C3254.736,448.32,2800.582,2.239,2242.23,2.239c-566.556,0-1025.841,459.284-1025.841,1025.84
	c0,566.478,459.158,1025.712,1025.607,1025.839v0.001h2493.961v-263.174H2928.269z"/>
</svg>
